<svg id="Layer_1" height="230" width="100%" data-name="Layer 1" xmlns="http://www.w3.org/2000/svg" viewBox="0 0 245 248.78"><defs><style>.cls-1{fill:#6abd47;}.cls-2{fill:#fff;}.cls-3{fill:#bcbec0;}.cls-4{fill:none;stroke:#231f20;stroke-miterlimit:10;}.cls-5,.cls-6,.cls-7{font-size:24.4px;}.cls-5,.cls-7{fill:#58595b;}.cls-5,.cls-6{font-family:OpenSans-Bold, Open Sans;font-weight:700;}.cls-6{fill:#231f20;}.cls-7,.cls-8{font-family:OpenSans, Open Sans;}.cls-8{font-size:25.68px;fill:#414042;}</style></defs><title>Artboard 1</title><rect class="cls-1" x="112.43" y="67.18" width="51.32" height="51.32" transform="translate(45.25 230.93) rotate(-90)"/><rect class="cls-1" x="60.64" y="118.35" width="51.32" height="51.32" transform="translate(-57.71 230.3) rotate(-90)"/><rect class="cls-2" x="164.22" y="118.35" width="51.32" height="51.32" transform="translate(45.87 333.89) rotate(-90)"/><rect class="cls-2" x="112.43" y="170.85" width="51.32" height="51.32" transform="translate(-58.42 334.6) rotate(-90)"/><rect class="cls-3" x="60.64" y="67.18" width="51.32" height="51.32" transform="translate(-6.54 179.14) rotate(-90)"/><rect class="cls-3" x="112.43" y="118.35" width="51.32" height="51.32" transform="translate(-5.92 282.09) rotate(-90)"/><rect class="cls-3" x="164.22" y="170.85" width="51.32" height="51.32" transform="translate(-6.63 386.39) rotate(-90)"/><rect class="cls-2" x="164.19" y="67.18" width="51.32" height="51.32" transform="translate(97.01 282.68) rotate(-90)"/><rect class="cls-2" x="61.05" y="170.85" width="51.32" height="51.32" transform="translate(-109.8 283.22) rotate(-90)"/><rect class="cls-4" x="60.17" y="66.18" width="155.37" height="155.99"/><text class="cls-5" transform="translate(79.39 100.98)">1</text><text class="cls-6" transform="translate(131.22 100.98)">1</text><text class="cls-7" transform="translate(183.06 100.98)">0</text><text class="cls-6" transform="translate(79.39 152.99)">1</text><text class="cls-5" transform="translate(131.22 152.99)">1</text><text class="cls-7" transform="translate(183.06 152.99)">0</text><text class="cls-7" transform="translate(79.39 205)">0</text><text class="cls-7" transform="translate(131.22 205)">0</text><text class="cls-5" transform="translate(183.06 205)">1</text><line class="cls-4" x1="60.64" y1="170.36" x2="215.5" y2="170.36"/><line class="cls-4" x1="60.64" y1="118.35" x2="215.5" y2="118.35"/><line class="cls-4" x1="164.22" y1="66.33" x2="164.22" y2="222.17"/><line class="cls-4" x1="112.43" y1="66.33" x2="112.43" y2="222.17"/><text class="cls-8" transform="translate(79.32 48.62)">0</text><text class="cls-8" transform="translate(131.15 48.62)">1</text><text class="cls-8" transform="translate(182.99 48.62)">2</text><text class="cls-8" transform="translate(29.46 205.23)">2</text><text class="cls-8" transform="translate(29.46 153.4)">1</text><text class="cls-8" transform="translate(29.46 101.56)">0</text></svg>